<svg viewBox="0 0 940 300" xmlns="http://www.w3.org/2000/svg">
  <rect width="940" height="300" fill="#FFF8F3"/>
  <g font-family="Segoe UI, Arial, sans-serif" font-size="18" font-weight="700" fill="#7C4A32" text-anchor="middle">
    <text x="130" y="270">Минус верхний</text>
    <text x="360" y="270">Соединение</text>
    <text x="590" y="270">Пересечение</text>
    <text x="820" y="270">Разделение</text>
  </g>

  <!-- ДОНАТ (Минус верхний) -->
  <path d="M130,128 m-74,0 a74,74 0 1,0 148,0 a74,74 0 1,0 -148,0 M130,128 m-26,0 a26,26 0 1,0 52,0 a26,26 0 1,0 -52,0" fill="#C8804A" fill-rule="evenodd"/>
  <path d="M130,120 m-70,0 a70,70 0 1,0 140,0 a70,70 0 1,0 -140,0 M130,120 m-28,0 a28,28 0 1,0 56,0 a28,28 0 1,0 -56,0" fill="#F6A5C0" fill-rule="evenodd"/>
  <g stroke-width="7" stroke-linecap="round">
    <line x1="112" y1="70" x2="122" y2="76" stroke="#86C34A"/>
    <line x1="150" y1="74" x2="158" y2="84" stroke="#38BDF8"/>
    <line x1="180" y1="112" x2="188" y2="120" stroke="#FBBF24"/>
    <line x1="90" y1="112" x2="80" y2="120" stroke="#E8524A"/>
    <line x1="150" y1="168" x2="158" y2="160" stroke="#7C3AED"/>
    <line x1="108" y1="170" x2="100" y2="162" stroke="#FBBF24"/>
  </g>

  <!-- КОФЕ (Соединение) -->
  <ellipse cx="360" cy="200" rx="58" ry="11" fill="#E2D6C4"/>
  <path d="M389,104 C424,102 424,158 386,158" fill="none" stroke="#EADBC6" stroke-width="14" stroke-linecap="round"/>
  <path d="M330,92 L392,92 L385,178 Q384,190 372,190 L350,190 Q338,190 337,178 Z" fill="#F2E7D6" stroke="#D9C7AC" stroke-width="3"/>
  <ellipse cx="361" cy="96" rx="28" ry="8" fill="#66330E"/>
  <g fill="none" stroke="#B8C4CC" stroke-width="5" stroke-linecap="round">
    <path d="M350,74 C344,66 356,58 350,50"/>
    <path d="M372,74 C366,66 378,58 372,50"/>
  </g>

  <!-- АРБУЗ (Пересечение) -->
  <path d="M520,120 A70,70 0 0,0 660,120 Z" fill="#3FA34D"/>
  <path d="M532,120 A58,58 0 0,0 648,120 Z" fill="#EAF7E1"/>
  <path d="M542,120 A48,48 0 0,0 638,120 Z" fill="#E8524A"/>
  <g fill="#2B2B2B">
    <ellipse cx="575" cy="150" rx="5" ry="9"/>
    <ellipse cx="600" cy="158" rx="5" ry="9"/>
    <ellipse cx="620" cy="146" rx="5" ry="9"/>
    <ellipse cx="590" cy="140" rx="5" ry="9"/>
  </g>

  <!-- МОРОЖЕНОЕ (Разделение) -->
  <rect x="812" y="180" width="16" height="58" rx="8" fill="#A9744F"/>
  <clipPath id="ice"><rect x="785" y="44" width="70" height="150" rx="34" ry="34"/></clipPath>
  <g clip-path="url(#ice)">
    <rect x="785" y="44" width="70" height="50" fill="#F6A5C0"/>
    <rect x="785" y="94" width="70" height="50" fill="#FCD34D"/>
    <rect x="785" y="144" width="70" height="52" fill="#86C34A"/>
  </g>
  <rect x="785" y="44" width="70" height="150" rx="34" ry="34" fill="none" stroke="#00000018" stroke-width="2"/>
</svg>
